<svg width="512" height="512" viewBox="0 0 512 512" fill="none" xmlns="http://www.w3.org/2000/svg">
  <!-- Background Circle -->
  <circle cx="256" cy="256" r="256" fill="#FB923C"/>
  
  <!-- Inner warm glow -->
  <circle cx="256" cy="256" r="200" fill="#FDBA74" opacity="0.3"/>
  
  <!-- Sun rays (subtle) -->
  <g opacity="0.4">
    <rect x="248" y="40" width="16" height="60" rx="8" fill="#FFF7ED"/>
    <rect x="248" y="412" width="16" height="60" rx="8" fill="#FFF7ED"/>
    <rect x="40" y="248" width="60" height="16" rx="8" fill="#FFF7ED"/>
    <rect x="412" y="248" width="60" height="16" rx="8" fill="#FFF7ED"/>
    <rect x="107" y="91" width="16" height="50" rx="8" fill="#FFF7ED" transform="rotate(45 107 91)"/>
    <rect x="370" y="354" width="16" height="50" rx="8" fill="#FFF7ED" transform="rotate(45 370 354)"/>
    <rect x="91" y="405" width="16" height="50" rx="8" fill="#FFF7ED" transform="rotate(-45 91 405)"/>
    <rect x="354" y="142" width="16" height="50" rx="8" fill="#FFF7ED" transform="rotate(-45 354 142)"/>
  </g>
  
  <!-- Letter K - stylized -->
  <path d="M180 160 L180 352 L220 352 L220 280 L280 352 L330 352 L255 260 L320 160 L270 160 L220 240 L220 160 Z" fill="#FFFBF7"/>
  
  <!-- Small sparkle accent -->
  <circle cx="340" cy="150" r="12" fill="#FFF7ED"/>
  <circle cx="350" cy="160" r="6" fill="#FFFBF7" opacity="0.8"/>
</svg>

